<mxfile host="app.diagrams.net" modified="2023-05-30T22:01:29.724Z" agent="Mozilla/5.0 (X11; Linux x86_64; rv:113.0) Gecko/20100101 Firefox/113.0" etag="uAaZH25zd6ndH5RvIg3F" version="21.3.6" type="device">
  <diagram name="Page-1" id="2YBvvXClWsGukQMizWep">
    <mxGraphModel dx="1434" dy="723" grid="1" gridSize="10" guides="1" tooltips="1" connect="1" arrows="1" fold="1" page="1" pageScale="1" pageWidth="850" pageHeight="1100" math="0" shadow="0">
      <root>
        <mxCell id="0" />
        <mxCell id="1" parent="0" />
        <mxCell id="RRlKeXFXmtlao4ka0cWh-9" value="alt" style="strokeColor=inherit;fillColor=inherit;gradientColor=inherit;html=1;shape=mxgraph.sysml.package;labelX=35;fontStyle=1;align=left;verticalAlign=top;spacingLeft=5;spacingTop=-3;" parent="1" vertex="1">
          <mxGeometry y="150" width="1330" height="650" as="geometry" />
        </mxCell>
        <mxCell id="RRlKeXFXmtlao4ka0cWh-19" value="alt" style="strokeColor=inherit;fillColor=inherit;gradientColor=inherit;html=1;shape=mxgraph.sysml.package;labelX=35;fontStyle=1;align=left;verticalAlign=top;spacingLeft=5;spacingTop=-3;" parent="1" vertex="1">
          <mxGeometry x="25" y="480" width="1285" height="240" as="geometry" />
        </mxCell>
        <mxCell id="aM9ryv3xv72pqoxQDRHE-1" value="&lt;div&gt;:Add Machine&lt;/div&gt;&lt;div&gt;Interface&lt;br&gt;&lt;/div&gt;" style="shape=umlLifeline;perimeter=lifelinePerimeter;whiteSpace=wrap;html=1;container=0;dropTarget=0;collapsible=0;recursiveResize=0;outlineConnect=0;portConstraint=eastwest;newEdgeStyle={&quot;edgeStyle&quot;:&quot;elbowEdgeStyle&quot;,&quot;elbow&quot;:&quot;vertical&quot;,&quot;curved&quot;:0,&quot;rounded&quot;:0};" parent="1" vertex="1">
          <mxGeometry x="270" y="40" width="100" height="800" as="geometry" />
        </mxCell>
        <mxCell id="aM9ryv3xv72pqoxQDRHE-2" value="" style="html=1;points=[];perimeter=orthogonalPerimeter;outlineConnect=0;targetShapes=umlLifeline;portConstraint=eastwest;newEdgeStyle={&quot;edgeStyle&quot;:&quot;elbowEdgeStyle&quot;,&quot;elbow&quot;:&quot;vertical&quot;,&quot;curved&quot;:0,&quot;rounded&quot;:0};" parent="aM9ryv3xv72pqoxQDRHE-1" vertex="1">
          <mxGeometry x="45" y="70" width="10" height="670" as="geometry" />
        </mxCell>
        <mxCell id="aM9ryv3xv72pqoxQDRHE-5" value="&lt;div&gt;:Add Machine&lt;/div&gt;&lt;div&gt;Control&lt;/div&gt;" style="shape=umlLifeline;perimeter=lifelinePerimeter;whiteSpace=wrap;html=1;container=0;dropTarget=0;collapsible=0;recursiveResize=0;outlineConnect=0;portConstraint=eastwest;newEdgeStyle={&quot;edgeStyle&quot;:&quot;elbowEdgeStyle&quot;,&quot;elbow&quot;:&quot;vertical&quot;,&quot;curved&quot;:0,&quot;rounded&quot;:0};" parent="1" vertex="1">
          <mxGeometry x="630" y="40" width="100" height="800" as="geometry" />
        </mxCell>
        <mxCell id="aM9ryv3xv72pqoxQDRHE-6" value="" style="html=1;points=[];perimeter=orthogonalPerimeter;outlineConnect=0;targetShapes=umlLifeline;portConstraint=eastwest;newEdgeStyle={&quot;edgeStyle&quot;:&quot;elbowEdgeStyle&quot;,&quot;elbow&quot;:&quot;vertical&quot;,&quot;curved&quot;:0,&quot;rounded&quot;:0};" parent="aM9ryv3xv72pqoxQDRHE-5" vertex="1">
          <mxGeometry x="45" y="80" width="10" height="640" as="geometry" />
        </mxCell>
        <mxCell id="aM9ryv3xv72pqoxQDRHE-7" value="request machine lookup" style="html=1;verticalAlign=bottom;endArrow=block;edgeStyle=elbowEdgeStyle;elbow=vertical;curved=0;rounded=0;" parent="1" source="aM9ryv3xv72pqoxQDRHE-2" target="aM9ryv3xv72pqoxQDRHE-6" edge="1">
          <mxGeometry relative="1" as="geometry">
            <mxPoint x="350" y="130" as="sourcePoint" />
            <Array as="points">
              <mxPoint x="335" y="120" />
            </Array>
          </mxGeometry>
        </mxCell>
        <mxCell id="RRlKeXFXmtlao4ka0cWh-1" value="" style="shape=umlLifeline;perimeter=lifelinePerimeter;whiteSpace=wrap;html=1;container=1;dropTarget=0;collapsible=0;recursiveResize=0;outlineConnect=0;portConstraint=eastwest;newEdgeStyle={&quot;edgeStyle&quot;:&quot;elbowEdgeStyle&quot;,&quot;elbow&quot;:&quot;vertical&quot;,&quot;curved&quot;:0,&quot;rounded&quot;:0};participant=umlActor;" parent="1" vertex="1">
          <mxGeometry x="50" y="40" width="20" height="800" as="geometry" />
        </mxCell>
        <mxCell id="RRlKeXFXmtlao4ka0cWh-2" value="&lt;div&gt;:Add Machine&lt;/div&gt;&lt;div&gt;Machine Data&lt;br&gt;&lt;/div&gt;" style="shape=umlLifeline;perimeter=lifelinePerimeter;whiteSpace=wrap;html=1;container=1;dropTarget=0;collapsible=0;recursiveResize=0;outlineConnect=0;portConstraint=eastwest;newEdgeStyle={&quot;edgeStyle&quot;:&quot;elbowEdgeStyle&quot;,&quot;elbow&quot;:&quot;vertical&quot;,&quot;curved&quot;:0,&quot;rounded&quot;:0};" parent="1" vertex="1">
          <mxGeometry x="1230" y="40" width="100" height="800" as="geometry" />
        </mxCell>
        <mxCell id="4k9RzLuvlxwP3f-AGjZz-13" value="" style="html=1;points=[];perimeter=orthogonalPerimeter;outlineConnect=0;targetShapes=umlLifeline;portConstraint=eastwest;newEdgeStyle={&quot;edgeStyle&quot;:&quot;elbowEdgeStyle&quot;,&quot;elbow&quot;:&quot;vertical&quot;,&quot;curved&quot;:0,&quot;rounded&quot;:0};" parent="RRlKeXFXmtlao4ka0cWh-2" vertex="1">
          <mxGeometry x="45" y="510" width="10" height="40" as="geometry" />
        </mxCell>
        <mxCell id="RRlKeXFXmtlao4ka0cWh-3" value="Teacher" style="text;html=1;align=center;verticalAlign=middle;resizable=0;points=[];autosize=1;strokeColor=none;fillColor=none;" parent="1" vertex="1">
          <mxGeometry x="25" y="10" width="70" height="30" as="geometry" />
        </mxCell>
        <mxCell id="RRlKeXFXmtlao4ka0cWh-4" value="click machine lookup button" style="html=1;verticalAlign=bottom;endArrow=open;endSize=12;edgeStyle=elbowEdgeStyle;elbow=vertical;curved=0;rounded=0;" parent="1" source="RRlKeXFXmtlao4ka0cWh-1" target="aM9ryv3xv72pqoxQDRHE-2" edge="1">
          <mxGeometry width="80" relative="1" as="geometry">
            <mxPoint x="110" y="120" as="sourcePoint" />
            <mxPoint x="190" y="120" as="targetPoint" />
            <Array as="points">
              <mxPoint x="170" y="110" />
            </Array>
          </mxGeometry>
        </mxCell>
        <mxCell id="RRlKeXFXmtlao4ka0cWh-13" value="" style="strokeColor=inherit;fillColor=inherit;gradientColor=inherit;endArrow=none;html=1;edgeStyle=none;dashed=1;rounded=0;entryX=0;entryY=0.25;entryDx=0;entryDy=0;entryPerimeter=0;exitX=1;exitY=0.25;exitDx=0;exitDy=0;exitPerimeter=0;" parent="1" source="RRlKeXFXmtlao4ka0cWh-9" target="RRlKeXFXmtlao4ka0cWh-9" edge="1">
          <mxGeometry relative="1" as="geometry">
            <mxPoint x="100" y="630" as="targetPoint" />
            <mxPoint x="300" y="630" as="sourcePoint" />
          </mxGeometry>
        </mxCell>
        <mxCell id="RRlKeXFXmtlao4ka0cWh-20" value="" style="strokeColor=inherit;fillColor=inherit;gradientColor=inherit;endArrow=none;html=1;edgeStyle=none;dashed=1;rounded=0;entryX=0;entryY=0.5;entryDx=0;entryDy=0;entryPerimeter=0;exitX=1;exitY=0.5;exitDx=0;exitDy=0;exitPerimeter=0;" parent="1" source="RRlKeXFXmtlao4ka0cWh-19" target="RRlKeXFXmtlao4ka0cWh-19" edge="1">
          <mxGeometry relative="1" as="geometry">
            <mxPoint x="450" y="550" as="targetPoint" />
            <mxPoint x="650" y="550" as="sourcePoint" />
          </mxGeometry>
        </mxCell>
        <mxCell id="RRlKeXFXmtlao4ka0cWh-21" value="&lt;div&gt;send machine not found&lt;/div&gt;&lt;div&gt;message&lt;br&gt;&lt;/div&gt;" style="html=1;verticalAlign=bottom;endArrow=block;edgeStyle=elbowEdgeStyle;elbow=vertical;curved=0;rounded=0;" parent="1" source="aM9ryv3xv72pqoxQDRHE-6" target="aM9ryv3xv72pqoxQDRHE-2" edge="1">
          <mxGeometry width="80" relative="1" as="geometry">
            <mxPoint x="390" y="190" as="sourcePoint" />
            <mxPoint x="310" y="190" as="targetPoint" />
            <Array as="points">
              <mxPoint x="500" y="210" />
            </Array>
          </mxGeometry>
        </mxCell>
        <mxCell id="RRlKeXFXmtlao4ka0cWh-23" value="inform no machines were found" style="html=1;verticalAlign=bottom;endArrow=open;endSize=12;edgeStyle=elbowEdgeStyle;elbow=vertical;curved=0;rounded=0;" parent="1" source="aM9ryv3xv72pqoxQDRHE-2" target="RRlKeXFXmtlao4ka0cWh-1" edge="1">
          <mxGeometry width="80" relative="1" as="geometry">
            <mxPoint x="245" y="220" as="sourcePoint" />
            <mxPoint x="60" y="220" as="targetPoint" />
            <Array as="points">
              <mxPoint x="190" y="240" />
            </Array>
          </mxGeometry>
        </mxCell>
        <mxCell id="RRlKeXFXmtlao4ka0cWh-26" value="&lt;div&gt;:Add Machine&lt;/div&gt;&lt;div&gt;Machine Object&lt;br&gt;&lt;/div&gt;" style="shape=umlLifeline;perimeter=lifelinePerimeter;whiteSpace=wrap;html=1;container=1;dropTarget=0;collapsible=0;recursiveResize=0;outlineConnect=0;portConstraint=eastwest;newEdgeStyle={&quot;edgeStyle&quot;:&quot;elbowEdgeStyle&quot;,&quot;elbow&quot;:&quot;vertical&quot;,&quot;curved&quot;:0,&quot;rounded&quot;:0};" parent="1" vertex="1">
          <mxGeometry x="910" y="350" width="100" height="350" as="geometry" />
        </mxCell>
        <mxCell id="4k9RzLuvlxwP3f-AGjZz-8" value="" style="shape=umlDestroy;whiteSpace=wrap;html=1;strokeWidth=3;targetShapes=umlLifeline;" parent="RRlKeXFXmtlao4ka0cWh-26" vertex="1">
          <mxGeometry x="35" y="330" width="30" height="30" as="geometry" />
        </mxCell>
        <mxCell id="RRlKeXFXmtlao4ka0cWh-27" value="create machine object" style="html=1;verticalAlign=bottom;endArrow=block;edgeStyle=elbowEdgeStyle;elbow=vertical;curved=0;rounded=0;" parent="1" source="aM9ryv3xv72pqoxQDRHE-6" edge="1">
          <mxGeometry width="80" relative="1" as="geometry">
            <mxPoint x="650" y="280" as="sourcePoint" />
            <mxPoint x="910" y="370" as="targetPoint" />
            <Array as="points">
              <mxPoint x="800" y="370" />
            </Array>
          </mxGeometry>
        </mxCell>
        <mxCell id="RRlKeXFXmtlao4ka0cWh-29" value="send machine information" style="html=1;verticalAlign=bottom;endArrow=block;edgeStyle=elbowEdgeStyle;elbow=vertical;curved=0;rounded=0;" parent="1" source="aM9ryv3xv72pqoxQDRHE-6" target="aM9ryv3xv72pqoxQDRHE-2" edge="1">
          <mxGeometry width="80" relative="1" as="geometry">
            <mxPoint x="560" y="430" as="sourcePoint" />
            <mxPoint x="480" y="430" as="targetPoint" />
            <Array as="points">
              <mxPoint x="450" y="410" />
            </Array>
          </mxGeometry>
        </mxCell>
        <mxCell id="RRlKeXFXmtlao4ka0cWh-30" value="show form with machine data" style="html=1;verticalAlign=bottom;endArrow=open;endSize=12;edgeStyle=elbowEdgeStyle;elbow=vertical;curved=0;rounded=0;" parent="1" source="aM9ryv3xv72pqoxQDRHE-2" target="RRlKeXFXmtlao4ka0cWh-1" edge="1">
          <mxGeometry width="80" relative="1" as="geometry">
            <mxPoint x="245" y="460" as="sourcePoint" />
            <mxPoint x="60" y="460" as="targetPoint" />
            <Array as="points">
              <mxPoint x="170" y="460" />
            </Array>
          </mxGeometry>
        </mxCell>
        <mxCell id="4k9RzLuvlxwP3f-AGjZz-1" value="&lt;div&gt;fills missing form fields&lt;/div&gt;&lt;div&gt;and submit&lt;br&gt;&lt;/div&gt;" style="html=1;verticalAlign=bottom;endArrow=open;endSize=12;edgeStyle=elbowEdgeStyle;elbow=vertical;curved=0;rounded=0;" parent="1" source="RRlKeXFXmtlao4ka0cWh-1" target="aM9ryv3xv72pqoxQDRHE-2" edge="1">
          <mxGeometry width="80" relative="1" as="geometry">
            <mxPoint x="60" y="520" as="sourcePoint" />
            <mxPoint x="245" y="520" as="targetPoint" />
            <Array as="points">
              <mxPoint x="200" y="540" />
            </Array>
          </mxGeometry>
        </mxCell>
        <mxCell id="4k9RzLuvlxwP3f-AGjZz-6" value="dispatch" style="html=1;verticalAlign=bottom;endArrow=block;edgeStyle=elbowEdgeStyle;elbow=vertical;curved=0;rounded=0;" parent="1" source="aM9ryv3xv72pqoxQDRHE-2" target="aM9ryv3xv72pqoxQDRHE-6" edge="1">
          <mxGeometry width="80" relative="1" as="geometry">
            <mxPoint x="460" y="530" as="sourcePoint" />
            <mxPoint x="540" y="530" as="targetPoint" />
            <Array as="points">
              <mxPoint x="510" y="560" />
            </Array>
          </mxGeometry>
        </mxCell>
        <mxCell id="4k9RzLuvlxwP3f-AGjZz-7" value="delete object" style="html=1;verticalAlign=bottom;endArrow=block;edgeStyle=elbowEdgeStyle;elbow=vertical;curved=0;rounded=0;entryX=0.433;entryY=0.433;entryDx=0;entryDy=0;entryPerimeter=0;" parent="1" source="aM9ryv3xv72pqoxQDRHE-6" target="4k9RzLuvlxwP3f-AGjZz-8" edge="1">
          <mxGeometry width="80" relative="1" as="geometry">
            <mxPoint x="760" y="570" as="sourcePoint" />
            <mxPoint x="840" y="570" as="targetPoint" />
          </mxGeometry>
        </mxCell>
        <mxCell id="4k9RzLuvlxwP3f-AGjZz-9" value="click cancel button" style="html=1;verticalAlign=bottom;endArrow=open;endSize=12;edgeStyle=elbowEdgeStyle;elbow=vertical;curved=0;rounded=0;" parent="1" source="RRlKeXFXmtlao4ka0cWh-1" target="aM9ryv3xv72pqoxQDRHE-2" edge="1">
          <mxGeometry width="80" relative="1" as="geometry">
            <mxPoint x="60" y="620" as="sourcePoint" />
            <mxPoint x="315" y="620" as="targetPoint" />
            <Array as="points">
              <mxPoint x="190" y="660" />
            </Array>
          </mxGeometry>
        </mxCell>
        <mxCell id="4k9RzLuvlxwP3f-AGjZz-11" value="request cancellation" style="html=1;verticalAlign=bottom;endArrow=block;edgeStyle=elbowEdgeStyle;elbow=vertical;curved=0;rounded=0;" parent="1" source="aM9ryv3xv72pqoxQDRHE-2" target="aM9ryv3xv72pqoxQDRHE-6" edge="1">
          <mxGeometry width="80" relative="1" as="geometry">
            <mxPoint x="420" y="630" as="sourcePoint" />
            <mxPoint x="500" y="630" as="targetPoint" />
            <Array as="points">
              <mxPoint x="510" y="680" />
            </Array>
          </mxGeometry>
        </mxCell>
        <mxCell id="4k9RzLuvlxwP3f-AGjZz-12" value="store new machine object" style="html=1;verticalAlign=bottom;endArrow=block;edgeStyle=elbowEdgeStyle;elbow=vertical;curved=0;rounded=0;" parent="1" source="aM9ryv3xv72pqoxQDRHE-6" target="4k9RzLuvlxwP3f-AGjZz-13" edge="1">
          <mxGeometry width="80" relative="1" as="geometry">
            <mxPoint x="930" y="650" as="sourcePoint" />
            <mxPoint x="1010" y="650" as="targetPoint" />
            <Array as="points">
              <mxPoint x="990" y="570" />
            </Array>
          </mxGeometry>
        </mxCell>
        <mxCell id="4k9RzLuvlxwP3f-AGjZz-16" value="send confirmation" style="html=1;verticalAlign=bottom;endArrow=block;edgeStyle=elbowEdgeStyle;elbow=vertical;curved=0;rounded=0;" parent="1" source="aM9ryv3xv72pqoxQDRHE-6" target="aM9ryv3xv72pqoxQDRHE-2" edge="1">
          <mxGeometry width="80" relative="1" as="geometry">
            <mxPoint x="470" y="740" as="sourcePoint" />
            <mxPoint x="550" y="740" as="targetPoint" />
            <Array as="points">
              <mxPoint x="510" y="750" />
            </Array>
          </mxGeometry>
        </mxCell>
        <mxCell id="4k9RzLuvlxwP3f-AGjZz-17" value="show confirmation" style="html=1;verticalAlign=bottom;endArrow=open;endSize=12;edgeStyle=elbowEdgeStyle;elbow=vertical;curved=0;rounded=0;" parent="1" source="aM9ryv3xv72pqoxQDRHE-2" target="RRlKeXFXmtlao4ka0cWh-1" edge="1">
          <mxGeometry width="80" relative="1" as="geometry">
            <mxPoint x="315" y="770" as="sourcePoint" />
            <mxPoint x="60" y="770" as="targetPoint" />
            <Array as="points">
              <mxPoint x="170" y="770" />
            </Array>
          </mxGeometry>
        </mxCell>
        <mxCell id="pH6MvBhtb_ERg1XSwA-H-1" value="[no machines found]" style="text;html=1;align=center;verticalAlign=middle;resizable=0;points=[];autosize=1;strokeColor=none;fillColor=none;" vertex="1" parent="1">
          <mxGeometry x="55" y="150" width="130" height="30" as="geometry" />
        </mxCell>
        <mxCell id="pH6MvBhtb_ERg1XSwA-H-2" value="[else]" style="text;html=1;align=center;verticalAlign=middle;resizable=0;points=[];autosize=1;strokeColor=none;fillColor=none;" vertex="1" parent="1">
          <mxGeometry x="95" y="310" width="50" height="30" as="geometry" />
        </mxCell>
        <mxCell id="pH6MvBhtb_ERg1XSwA-H-3" value="[submit]" style="text;html=1;align=center;verticalAlign=middle;resizable=0;points=[];autosize=1;strokeColor=none;fillColor=none;" vertex="1" parent="1">
          <mxGeometry x="60" y="480" width="70" height="30" as="geometry" />
        </mxCell>
        <mxCell id="pH6MvBhtb_ERg1XSwA-H-4" value="[else]" style="text;html=1;align=center;verticalAlign=middle;resizable=0;points=[];autosize=1;strokeColor=none;fillColor=none;" vertex="1" parent="1">
          <mxGeometry x="70" y="600" width="50" height="30" as="geometry" />
        </mxCell>
      </root>
    </mxGraphModel>
  </diagram>
</mxfile>
